  0
SECTION
  2
HEADER
  9
$ACADVER
  1
AC1015
  9
$ACADMAINTVER
 70
         6
  9
$DWGCODEPAGE
  3
ANSI_1252
  9
$INSBASE
 10
0.0
 20
0.0
 30
0.0
  9
$EXTMIN
 10
-0.93969262
 20
-0.98480775
 30
0.0
  9
$EXTMAX
 10
13.0
 20
12.98480775
 30
0.0
  9
$LIMMIN
 10
0.0
 20
0.0
  9
$LIMMAX
 10
0.0
 20
0.0
  9
$ORTHOMODE
 70
         0
  9
$REGENMODE
 70
         1
  9
$FILLMODE
 70
         1
  9
$QTEXTMODE
 70
         0
  9
$MIRRTEXT
 70
         1
  9
$LTSCALE
 40
2.6966
  9
$ATTMODE
 70
         1
  9
$TEXTSIZE
 40
0.2
  9
$TRACEWID
 40
0.05
  9
$TEXTSTYLE
  7
Standard
  9
$CLAYER
  8
0
  9
$CELTYPE
  6
Continuous
  9
$CECOLOR
 62
       256
  9
$CELTSCALE
 40
1.0
  9
$DISPSILH
 70
         0
  9
$DIMSCALE
 40
1.0
  9
$DIMASZ
 40
0.18
  9
$DIMEXO
 40
0.0625
  9
$DIMDLI
 40
0.38
  9
$DIMRND
 40
0.0
  9
$DIMDLE
 40
0.0
  9
$DIMEXE
 40
0.18
  9
$DIMTP
 40
0.0
  9
$DIMTM
 40
0.0
  9
$DIMTXT
 40
0.18
  9
$DIMCEN
 40
0.09
  9
$DIMTSZ
 40
0.0
  9
$DIMTOL
 70
         0
  9
$DIMLIM
 70
         0
  9
$DIMTIH
 70
         1
  9
$DIMTOH
 70
         1
  9
$DIMSE1
 70
         0
  9
$DIMSE2
 70
         0
  9
$DIMTAD
 70
         0
  9
$DIMZIN
 70
         0
  9
$DIMBLK
  1

  9
$DIMASO
 70
         1
  9
$DIMSHO
 70
         1
  9
$DIMPOST
  1

  9
$DIMAPOST
  1

  9
$DIMALT
 70
         0
  9
$DIMALTD
 70
         2
  9
$DIMALTF
 40
25.4
  9
$DIMLFAC
 40
1.0
  9
$DIMTOFL
 70
         0
  9
$DIMTVP
 40
0.0
  9
$DIMTIX
 70
         0
  9
$DIMSOXD
 70
         0
  9
$DIMSAH
 70
         0
  9
$DIMBLK1
  1

  9
$DIMBLK2
  1

  9
$DIMSTYLE
  2
Standard
  9
$DIMCLRD
 70
         0
  9
$DIMCLRE
 70
         0
  9
$DIMCLRT
 70
         0
  9
$DIMTFAC
 40
1.0
  9
$DIMGAP
 40
0.09
  9
$DIMJUST
 70
         0
  9
$DIMSD1
 70
         0
  9
$DIMSD2
 70
         0
  9
$DIMTOLJ
 70
         1
  9
$DIMTZIN
 70
         0
  9
$DIMALTZ
 70
         0
  9
$DIMALTTZ
 70
         0
  9
$DIMUPT
 70
         0
  9
$DIMDEC
 70
         4
  9
$DIMTDEC
 70
         4
  9
$DIMALTU
 70
         2
  9
$DIMALTTD
 70
         2
  9
$DIMTXSTY
  7
Standard
  9
$DIMAUNIT
 70
         0
  9
$DIMADEC
 70
         0
  9
$DIMALTRND
 40
0.0
  9
$DIMAZIN
 70
         0
  9
$DIMDSEP
 70
         0
  9
$DIMATFIT
 70
         3
  9
$DIMFRAC
 70
         0
  9
$DIMLDRBLK
  1

  9
$DIMLUNIT
 70
         2
  9
$DIMLWD
 70
         0
  9
$DIMLWE
 70
         0
  9
$DIMTMOVE
 70
         0
  9
$LUNITS
 70
         2
  9
$LUPREC
 70
         4
  9
$SKETCHINC
 40
0.1
  9
$FILLETRAD
 40
0.0
  9
$AUNITS
 70
         0
  9
$AUPREC
 70
         0
  9
$MENU
  1
acad
  9
$ELEVATION
 40
0.0
  9
$PELEVATION
 40
0.0
  9
$THICKNESS
 40
0.0
  9
$LIMCHECK
 70
         0
  9
$CHAMFERA
 40
0.0
  9
$CHAMFERB
 40
0.0
  9
$CHAMFERC
 40
0.0
  9
$CHAMFERD
 40
0.0
  9
$SKPOLY
 70
         0
  9
$TDCREATE
 40
2458533.557824074
  9
$TDUCREATE
 40
0.000000000
  9
$TDUPDATE
 40
2458533.557824074
  9
$TDUUPDATE
 40
0.000000000
  9
$TDINDWG
 40
0.0000000000
  9
$TDUSRTIMER
 40
0.0000000000
  9
$USRTIMER
 70
         1
  9
$ANGBASE
 50
0.0
  9
$ANGDIR
 70
         0
  9
$PDMODE
 70
         0
  9
$PDSIZE
 40
0.0
  9
$PLINEWID
 40
0.0
  9
$SPLFRAME
 70
         0
  9
$SPLINETYPE
 70
         6
  9
$SPLINESEGS
 70
         8
  9
$HANDSEED
  5
126
  9
$SURFTAB1
 70
         6
  9
$SURFTAB2
 70
         6
  9
$SURFTYPE
 70
         6
  9
$SURFU
 70
         6
  9
$SURFV
 70
         6
  9
$UCSBASE
  2

  9
$UCSNAME
  2

  9
$UCSORG
 10
0.0
 20
0.0
 30
0.0
  9
$UCSXDIR
 10
1.0
 20
0.0
 30
0.0
  9
$UCSYDIR
 10
0.0
 20
1.0
 30
0.0
  9
$UCSORTHOREF
  2

  9
$UCSORTHOVIEW
 70
         0
  9
$UCSORGTOP
 10
0.0
 20
0.0
 30
0.0
  9
$UCSORGBOTTOM
 10
0.0
 20
0.0
 30
0.0
  9
$UCSORGLEFT
 10
0.0
 20
0.0
 30
0.0
  9
$UCSORGRIGHT
 10
0.0
 20
0.0
 30
0.0
  9
$UCSORGFRONT
 10
0.0
 20
0.0
 30
0.0
  9
$UCSORGBACK
 10
0.0
 20
0.0
 30
0.0
  9
$PUCSBASE
  2

  9
$PUCSNAME
  2

  9
$PUCSORG
 10
0.0
 20
0.0
 30
0.0
  9
$PUCSXDIR
 10
1.0
 20
0.0
 30
0.0
  9
$PUCSYDIR
 10
0.0
 20
1.0
 30
0.0
  9
$PUCSORTHOREF
  2

  9
$PUCSORTHOVIEW
 70
         0
  9
$PUCSORGTOP
 10
0.0
 20
0.0
 30
0.0
  9
$PUCSORGBOTTOM
 10
0.0
 20
0.0
 30
0.0
  9
$PUCSORGLEFT
 10
0.0
 20
0.0
 30
0.0
  9
$PUCSORGRIGHT
 10
0.0
 20
0.0
 30
0.0
  9
$PUCSORGFRONT
 10
0.0
 20
0.0
 30
0.0
  9
$PUCSORGBACK
 10
0.0
 20
0.0
 30
0.0
  9
$USERI1
 70
         0
  9
$USERI2
 70
         0
  9
$USERI3
 70
         0
  9
$USERI4
 70
         0
  9
$USERI5
 70
         0
  9
$USERR1
 40
0.0
  9
$USERR2
 40
0.0
  9
$USERR3
 40
0.0
  9
$USERR4
 40
0.0
  9
$USERR5
 40
0.0
  9
$WORLDVIEW
 70
         1
  9
$SHADEDGE
 70
         3
  9
$SHADEDIF
 70
        70
  9
$TILEMODE
 70
         1
  9
$MAXACTVP
 70
        16
  9
$PINSBASE
 10
0.0
 20
0.0
 30
0.0
  9
$PLIMCHECK
 70
         0
  9
$PEXTMIN
 10
1.0000000000E+20
 20
1.0000000000E+20
 30
1.0000000000E+20
  9
$PEXTMAX
 10
-1.0000000000E+20
 20
-1.0000000000E+20
 30
-1.0000000000E+20
  9
$PLIMMIN
 10
0.0
 20
0.0
  9
$PLIMMAX
 10
12.0
 20
9.0
  9
$UNITMODE
 70
         0
  9
$VISRETAIN
 70
         0
  9
$PLINEGEN
 70
         1
  9
$PSLTSCALE
 70
         0
  9
$TREEDEPTH
 70
      3020
  9
$CMLSTYLE
  2
Standard
  9
$CMLJUST
 70
         0
  9
$CMLSCALE
 40
1.0
  9
$PROXYGRAPHICS
 70
         0
  9
$MEASUREMENT
 70
         0
  9
$CELWEIGHT
370
         0
  9
$ENDCAPS
280
         0
  9
$JOINSTYLE
280
         0
  9
$LWDISPLAY
290
         0
  9
$INSUNITS
 70
         0
  9
$HYPERLINKBASE
  1

  9
$XEDIT
290
         1
  9
$CEPSNTYPE
380
         0
  9
$PSTYLEMODE
290
         1
  9
$FINGERPRINTGUID
  2

  9
$VERSIONGUID
  2

  9
$EXTNAMES
290
         1
  9
$PSVPSCALE
 40
0.0
  0
ENDSEC
  0
SECTION
  2
CLASSES
  0
CLASS
  1
LWPOLYLINE
  2
AcDbPolyline
  3
AutoCAD 2000
 90
    32768
280
         0
281
         1
  0
CLASS
  1
IMAGE
  2
AcDbRasterImage
  3
ISM
 90
    32895
280
         0
281
         1
  0
CLASS
  1
OLE2FRAME
  2
AcDbOle2Frame
  3
AutoCAD 2000
 90
    32768
280
         0
281
         1
  0
CLASS
  1
HATCH
  2
AcDbHatch
  3
AutoCAD 2000
 90
    32768
280
         0
281
         1
  0
CLASS
  1
DICTIONARYVAR
  2
AcDbDictionaryVar
  3
AutoCAD 2000
 90
    32768
280
         0
281
         0
  0
CLASS
  1
RASTERVARIABLES
  2
AcDbRasterVariables
  3
ISM
 90
    32768
280
         0
281
         0
  0
CLASS
  1
IMAGEDEF
  2
AcDbRasterImageDef
  3
ISM
 90
    32768
280
         0
281
         0
  0
CLASS
  1
IMAGEDEF_REACTOR
  2
AcDbRasterImageDefReactor
  3
ISM
 90
    32769
280
         0
281
         0
  0
CLASS
  1
IDBUFFER
  2
AcDbIdBuffer
  3
AutoCAD 2000
 90
    32768
280
         0
281
         0
  0
CLASS
  1
SPATIAL_FILTER
  2
AcDbSpatialFilter
  3
AutoCAD 2000
 90
    32768
280
         0
281
         0
  0
CLASS
  1
XRECORD
  2
AcDbXrecord
  3
AutoCAD 2000
 90
    32768
280
         0
281
         0
  0
CLASS
  1
SORTENTSTABLE
  2
AcDbSortentsTable
  3
AutoCAD 2000
 90
    32768
280
         0
281
         0
  0
CLASS
  1
LAYER_INDEX
  2
AcDbLayerIndex
  3
AutoCAD 2000
 90
    32768
280
         0
281
         0
  0
CLASS
  1
SPATIAL_INDEX
  2
AcDbSpatialIndex
  3
AutoCAD 2000
 90
    32768
280
         0
281
         0
  0
CLASS
  1
OBJECT_PTR
  2
CAseDLPNTableRecord
  3
"ASE-LPNTableRecord"
 90
    32769
280
         0
281
         0
  0
CLASS
  1
LAYOUT
  2
AcDbLayout
  3
AutoCAD 2000
 90
        0
280
         0
281
         0
  0
CLASS
  1
PLOTSETTINGS
  2
AcDbPlotSettings
  3
AutoCAD 2000
 90
    32768
280
         0
281
         0
  0
CLASS
  1
ACDBDICTIONARYWDFLT
  2
AcDbDictionaryWithDefault
  3
AutoCAD 2000
 90
        0
280
         0
281
         0
  0
CLASS
  1
ACDBPLACEHOLDER
  2
AcDbPlaceHolder
  3
AutoCAD 2000
 90
        0
280
         0
281
         0
  0
CLASS
  1
VBA_PROJECT
  2
AcDbVbaProject
  3
acadvba
 90
    32768
280
         0
281
         0
  0
CLASS
  1
WIPEOUT
  2
AcDbWipeout
  3
WipeOut|AutoCAD Express Tool|expresstools@autodesk.com
 90
    32895
280
         0
281
         1
  0
CLASS
  1
WIPEOUTVARIABLES
  2
AcDbWipeoutVariables
  3
WipeOut|AutoCAD Express Tool|expresstools@autodesk.com
 90
        0
280
         0
281
         0
  0
CLASS
  1
RTEXT
  2
RText
  3
RText|AutoCAD Express Tool|expresstools@autodesk.com
 90
    32768
280
         0
281
         1
  0
CLASS
  1
ARCALIGNEDTEXT
  2
AcDbArcAlignedText
  3
ATEXT|AutoCAD Express Tool|expresstools@autodesk.com
 90
    32768
280
         0
281
         1
  0
ENDSEC
  0
SECTION
  2
TABLES
  0
TABLE
  2
VPORT
  5
7
100
AcDbSymbolTable
 70
         1
  0
VPORT
  5
15
100
AcDbSymbolTableRecord
100
AcDbViewportTableRecord
  2
*ACTIVE
 70
         0
 10
0.0
 20
0.0
 11
1.0
 21
1.0
 12
6.591288
 22
4.579184
 13
0.0
 23
0.0
 14
1.0
 24
1.0
 15
0.0
 25
0.0
 16
0.0
 26
0.0
 36
1.0
 17
0.0
 27
0.0
 37
0.0
 40
9.158369
 41
0.688564
 42
50.0
 43
0.0
 44
0.0
 50
0.0
 51
0.0
 71
         0
 72
       100
 73
         1
 74
         1
 75
         0
 76
         0
 77
         0
 78
         0
281
         0
 65
         0
110
0.0
120
0.0
130
0.0
111
1.0
121
0.0
131
0.0
112
0.0
122
1.0
132
0.0
345
0
346
0
 79
         0
146
0.0
  0
ENDTAB
  0
TABLE
  2
LTYPE
  5
4
100
AcDbSymbolTable
 70
        13
  0
LTYPE
  5
11
100
AcDbSymbolTableRecord
100
AcDbLinetypeTableRecord
  2
ByBlock
 70
        64
  3

 72
        65
 73
         0
 40
0.0
  0
LTYPE
  5
12
100
AcDbSymbolTableRecord
100
AcDbLinetypeTableRecord
  2
ByLayer
 70
        64
  3

 72
        65
 73
         0
 40
0.0
  0
LTYPE
  5
13
100
AcDbSymbolTableRecord
100
AcDbLinetypeTableRecord
  2
Continuous
 70
        64
  3
Solid line
 72
        65
 73
         0
 40
0.0
  0
LTYPE
  5
25
100
AcDbSymbolTableRecord
100
AcDbLinetypeTableRecord
  2
Dotted
 70
        64
  3
Dotted
 72
        65
 73
         2
 40
0.125
 49
0.0
 74
         0
 49
-0.125
 74
         0
  0
LTYPE
  5
26
100
AcDbSymbolTableRecord
100
AcDbLinetypeTableRecord
  2
Center
 70
        64
  3
Center
 72
        65
 73
         4
 40
0.7699999809
 49
0.5
 74
         0
 49
-0.0724999979
 74
         0
 49
0.125
 74
         0
 49
-0.0724999979
 74
         0
  0
LTYPE
  5
27
100
AcDbSymbolTableRecord
100
AcDbLinetypeTableRecord
  2
Dashed
 70
        64
  3
Dashed
 72
        65
 73
         2
 40
0.375
 49
0.25
 74
         0
 49
-0.125
 74
         0
  0
LTYPE
  5
28
100
AcDbSymbolTableRecord
100
AcDbLinetypeTableRecord
  2
Hidden
 70
        64
  3
Hidden
 72
        65
 73
         2
 40
0.1974999905
 49
0.125
 74
         0
 49
-0.0724999979
 74
         0
  0
LTYPE
  5
29
100
AcDbSymbolTableRecord
100
AcDbLinetypeTableRecord
  2
Phantom
 70
        64
  3
Phantom
 72
        65
 73
         6
 40
0.9674999714
 49
0.5
 74
         0
 49
-0.0724999979
 74
         0
 49
0.125
 74
         0
 49
-0.0724999979
 74
         0
 49
0.125
 74
         0
 49
-0.0724999979
 74
         0
  0
LTYPE
  5
2A
100
AcDbSymbolTableRecord
100
AcDbLinetypeTableRecord
  2
Dashdot
 70
        64
  3
Dashdot
 72
        65
 73
         4
 40
0.6762499809
 49
0.5
 74
         0
 49
-0.0724999979
 74
         0
 49
0.03125
 74
         0
 49
-0.0724999979
 74
         0
  0
LTYPE
  5
2B
100
AcDbSymbolTableRecord
100
AcDbLinetypeTableRecord
  2
Border
 70
        64
  3
Border
 72
        65
 73
         6
 40
1.2487499714
 49
0.5
 74
         0
 49
-0.0724999979
 74
         0
 49
0.5
 74
         0
 49
-0.0724999979
 74
         0
 49
0.03125
 74
         0
 49
-0.0724999979
 74
         0
  0
LTYPE
  5
2C
100
AcDbSymbolTableRecord
100
AcDbLinetypeTableRecord
  2
Divide
 70
        64
  3
Divide
 72
        65
 73
         6
 40
0.7799999714
 49
0.5
 74
         0
 49
-0.0724999979
 74
         0
 49
0.03125
 74
         0
 49
-0.0724999979
 74
         0
 49
0.03125
 74
         0
 49
-0.0724999979
 74
         0
  0
LTYPE
  5
2D
100
AcDbSymbolTableRecord
100
AcDbLinetypeTableRecord
  2
Cutting
 70
        64
  3
Cutting
 72
        65
 73
         6
 40
1.4674999714
 49
1.0
 74
         0
 49
-0.0724999979
 74
         0
 49
0.125
 74
         0
 49
-0.0724999979
 74
         0
 49
0.125
 74
         0
 49
-0.0724999979
 74
         0
  0
LTYPE
  5
2E
100
AcDbSymbolTableRecord
100
AcDbLinetypeTableRecord
  2
Stitch
 70
        64
  3
Stitch
 72
        65
 73
         2
 40
0.1449999958
 49
0.0724999979
 74
         0
 49
-0.0724999979
 74
         0
  0
ENDTAB
  0
TABLE
  2
LAYER
  5
2
100
AcDbSymbolTable
 70
        10
  0
LAYER
  5
14
100
AcDbSymbolTableRecord
100
AcDbLayerTableRecord
  2
0
 70
         0
 62
         7
  6
Continuous
290
         1
370
        -3
390
1D
  0
LAYER
  5
2F
100
AcDbSymbolTableRecord
100
AcDbLayerTableRecord
  2
Z0_TOPCOMP
 70
         0
 62
        -6
  6
Continuous
290
         1
370
         2
390
1F
  0
LAYER
  5
30
100
AcDbSymbolTableRecord
100
AcDbLayerTableRecord
  2
Z0_BOTCOMP
 70
         0
 62
        -4
  6
Continuous
290
         1
370
         2
390
1F
  0
LAYER
  5
31
100
AcDbSymbolTableRecord
100
AcDbLayerTableRecord
  2
Z0_CUT500
 70
         0
 62
         5
  6
Continuous
290
         1
370
         2
390
1F
  0
LAYER
  5
32
100
AcDbSymbolTableRecord
100
AcDbLayerTableRecord
  2
Z0_CUT250
 70
         0
 62
         6
  6
Continuous
290
         1
370
         2
390
1F
  0
LAYER
  5
33
100
AcDbSymbolTableRecord
100
AcDbLayerTableRecord
  2
Z0_RUBBER
 70
         0
 62
        -6
  6
Continuous
290
         1
370
         2
390
1F
  0
LAYER
  5
34
100
AcDbSymbolTableRecord
100
AcDbLayerTableRecord
  2
Z0_PLASTICS
 70
         0
 62
        -6
  6
Continuous
290
         1
370
         2
390
1F
  0
LAYER
  5
35
100
AcDbSymbolTableRecord
100
AcDbLayerTableRecord
  2
UNASSIGNED
 70
         0
 62
        -7
  6
Continuous
290
         1
370
         0
390
1F
  0
LAYER
  5
36
100
AcDbSymbolTableRecord
100
AcDbLayerTableRecord
  2
CONSTRUCTION
 70
         0
 62
        -7
  6
Continuous
290
         1
370
         0
390
1F
  0
LAYER
  5
37
100
AcDbSymbolTableRecord
100
AcDbLayerTableRecord
  2
Z0_CENTROID
 70
         0
 62
        -5
  6
Continuous
290
         1
370
         2
390
1F
  0
ENDTAB
  0
TABLE
  2
STYLE
  5
3
100
AcDbSymbolTable
 70
         2
  0
STYLE
  5
17
100
AcDbSymbolTableRecord
100
AcDbTextStyleTableRecord
  2
Standard
 70
         0
 40
0.0
 41
1.0
 50
0.0
 71
         0
 42
0.0
  3
txt
  4

  0
STYLE
  5
24
100
AcDbSymbolTableRecord
100
AcDbTextStyleTableRecord
  2
Plotter
 70
         0
 40
0.0
 41
0.98
 50
0.0
 71
         0
 42
0.0
  3
SIMPLEX
  4

  0
ENDTAB
  0
TABLE
  2
VIEW
  5
5
100
AcDbSymbolTable
 70
         0
  0
ENDTAB
  0
TABLE
  2
UCS
  5
6
100
AcDbSymbolTable
 70
         0
  0
ENDTAB
  0
TABLE
  2
APPID
  5
8
100
AcDbSymbolTable
 70
         1
  0
APPID
  5
16
100
AcDbSymbolTableRecord
100
AcDbRegAppTableRecord
  2
ACAD
 70
         0
  0
ENDTAB
  0
TABLE
  2
DIMSTYLE
  5
9
100
AcDbSymbolTable
 70
         1
100
AcDbDimStyleTable
 71
         0
  0
DIMSTYLE
105
18
100
AcDbSymbolTableRecord
100
AcDbDimStyleTableRecord
  2
Standard
 70
         0
  3

  4

 40
1.0
 41
0.18
 42
0.0625
 43
0.38
 44
0.18
 45
0.0
 46
0.0
 47
0.0
 48
0.0
 71
         0
 72
         0
 73
         1
 74
         1
 75
         0
 76
         0
 77
         0
 78
         0
 79
         0
140
0.18
141
0.09
142
0.0
143
25.4
144
1.0
145
0.0
146
1.0
147
0.09
148
0.0
170
         0
171
         2
172
         0
173
         0
174
         0
175
         0
176
         0
177
         0
178
         0
179
         0
271
         4
272
         4
273
         2
274
         2
275
         0
276
         0
277
         2
278
        46
279
         0
280
         0
281
         0
282
         0
283
         1
284
         0
285
         0
286
         0
288
         0
340
17
341
0
342
0
343
0
344
0
371
        -2
372
        -2
  0
ENDTAB
  0
TABLE
  2
BLOCK_RECORD
  5
1
100
AcDbSymbolTable
 70
         0
  0
BLOCK_RECORD
  5
A
100
AcDbSymbolTableRecord
100
AcDbBlockTableRecord
  2
*MODEL_SPACE
340
20
  0
BLOCK_RECORD
  5
B
100
AcDbSymbolTableRecord
100
AcDbBlockTableRecord
  2
*PAPER_SPACE
340
21
  0
ENDTAB
  0
ENDSEC
  0
SECTION
  2
BLOCKS
  0
BLOCK
  5
D
100
AcDbEntity
  8
0
100
AcDbBlockBegin
  2
*MODEL_SPACE
 70
         0
 10
0.0
 20
0.0
 30
0.0
  3
*MODEL_SPACE
  1

  0
ENDBLK
  5
E
100
AcDbEntity
  8
0
100
AcDbBlockEnd
  0
BLOCK
  5
F
100
AcDbEntity
 67
         1
  8
0
100
AcDbBlockBegin
  2
*PAPER_SPACE
 70
         0
 10
0.0
 20
0.0
 30
0.0
  3
*PAPER_SPACE
  1

  0
ENDBLK
  5
10
100
AcDbEntity
 67
         1
  8
0
100
AcDbBlockEnd
  0
ENDSEC
  0
SECTION
  2
ENTITIES
  0
SPLINE
  5
38
100
AcDbEntity
  8
Z0_CUT250
370
        25
  6
Continuous
 62
         3
100
AcDbSpline
210
0.0
220
0.0
230
1.0
 70
         0
 71
         3
 72
         0
 73
         0
 74
         3
 44
0.000001
 11
415.93749951780211
 21
528.98710208615682
 31
0.0
 11
415.8487386833209
 21
528.95038972990619
 31
0.0
 11
415.81193485141375
 21
528.8616667858829
 31
0.0
  0
CIRCLE
  5
39
100
AcDbEntity
  8
Z0_CUT500
370
        25
  6
Continuous
 62
         5
100
AcDbCircle
 10
407.2500294415
 20
533.5000043383
 30
0.0
 40
0.0625
  0
CIRCLE
  5
3A
100
AcDbEntity
  8
Z0_CUT500
370
        25
  6
Continuous
 62
         5
100
AcDbCircle
 10
407.2500294415
 20
539.5000043383
 30
0.0
 40
0.0625
  0
CIRCLE
  5
3B
100
AcDbEntity
  8
Z0_CUT500
370
        25
  6
Continuous
 62
         5
100
AcDbCircle
 10
407.2500294415
 20
551.5000043383
 30
0.0
 40
0.0625
  0
CIRCLE
  5
3C
100
AcDbEntity
  8
Z0_CUT500
370
        25
  6
Continuous
 62
         5
100
AcDbCircle
 10
407.2500294415
 20
545.5000043383
 30
0.0
 40
0.0625
  0
CIRCLE
  5
3D
100
AcDbEntity
  8
Z0_CUT500
370
        25
  6
Continuous
 62
         5
100
AcDbCircle
 10
409.4250294415
 20
558.2382942648
 30
0.0
 40
0.0625
  0
CIRCLE
  5
3E
100
AcDbEntity
  8
Z0_CUT500
370
        25
  6
Continuous
 62
         5
100
AcDbCircle
 10
407.2500294415
 20
557.5000043383
 30
0.0
 40
0.0625
  0
CIRCLE
  5
3F
100
AcDbEntity
  8
Z0_CUT500
370
        25
  6
Continuous
 62
         5
100
AcDbCircle
 10
427.0000294415
 20
533.5000043383
 30
0.0
 40
0.0625
  0
CIRCLE
  5
40
100
AcDbEntity
  8
Z0_CUT500
370
        25
  6
Continuous
 62
         5
100
AcDbCircle
 10
425.1254743941
 20
533.5000043383
 30
0.0
 40
0.0625
  0
CIRCLE
  5
41
100
AcDbEntity
  8
Z0_CUT500
370
        25
  6
Continuous
 62
         5
100
AcDbCircle
 10
427.0000294415
 20
539.5000043383
 30
0.0
 40
0.0625
  0
CIRCLE
  5
42
100
AcDbEntity
  8
Z0_CUT500
370
        25
  6
Continuous
 62
         5
100
AcDbCircle
 10
427.0000294415
 20
545.5000043383
 30
0.0
 40
0.0625
  0
CIRCLE
  5
43
100
AcDbEntity
  8
Z0_CUT500
370
        25
  6
Continuous
 62
         5
100
AcDbCircle
 10
427.0000294415
 20
551.5000043383
 30
0.0
 40
0.0625
  0
CIRCLE
  5
44
100
AcDbEntity
  8
Z0_CUT500
370
        25
  6
Continuous
 62
         5
100
AcDbCircle
 10
420.9750294415
 20
558.2382942648
 30
0.0
 40
0.0625
  0
CIRCLE
  5
45
100
AcDbEntity
  8
Z0_CUT500
370
        25
  6
Continuous
 62
         5
100
AcDbCircle
 10
417.1250294415
 20
558.2382942648
 30
0.0
 40
0.0625
  0
CIRCLE
  5
46
100
AcDbEntity
  8
Z0_CUT500
370
        25
  6
Continuous
 62
         5
100
AcDbCircle
 10
413.2750294415
 20
558.2382942648
 30
0.0
 40
0.0625
  0
CIRCLE
  5
47
100
AcDbEntity
  8
Z0_CUT500
370
        25
  6
Continuous
 62
         5
100
AcDbCircle
 10
426.9999182788
 20
557.5000043383
 30
0.0
 40
0.0625
  0
CIRCLE
  5
48
100
AcDbEntity
  8
Z0_CUT500
370
        25
  6
Continuous
 62
         5
100
AcDbCircle
 10
424.8250294415
 20
558.2382942648
 30
0.0
 40
0.0625
  0
ELLIPSE
  5
49
100
AcDbEntity
  8
Z0_CUT500
370
        25
  6
Continuous
 62
         5
100
AcDbEllipse
 10
414.9926045952
 20
527.5402037518
 30
0.0
 11
0.0617844302786859
 21
0.0094304917763265
 31
0.0
210
0.0
220
0.0
230
-1.0
 40
1.0
 41
0.0
 42
1.5707963267948966
  0
ELLIPSE
  5
4A
100
AcDbEntity
  8
Z0_CUT500
370
        25
  6
Continuous
 62
         5
100
AcDbEllipse
 10
414.498329153
 20
527.4647598176
 30
0.0
 11
-0.0617844302786562
 21
-0.0094304917762476
 31
0.0
210
0.0
220
0.0
230
-1.0
 40
1.0
 41
4.7123889803846897
 42
6.2831853071801866
  0
LINE
  5
4B
102
{ACAD_REACTORS
330
4F
102
}
100
AcDbEntity
  8
Z0_CUT500
370
        25
  6
Continuous
 62
         5
100
AcDbLine
 10
422.690474483
 20
525.6708739719
 30
0.0
 11
422.690474483
 21
523.9708739719
 31
0.0
  0
LINE
  5
4C
102
{ACAD_REACTORS
330
4F
102
}
100
AcDbEntity
  8
Z0_CUT500
370
        25
  6
Continuous
 62
         5
100
AcDbLine
 10
422.510474483
 20
525.6708739719
 30
0.0
 11
422.510474483
 21
523.9708739719
 31
0.0
  0
ARC
  5
4D
102
{ACAD_REACTORS
330
4F
102
}
100
AcDbEntity
  8
Z0_CUT500
370
        25
  6
Continuous
 62
         5
100
AcDbCircle
 10
422.600474483
 20
523.9708739719
 30
0.0
 40
0.09
100
AcDbArc
 50
180.0
 51
0.0
  0
ARC
  5
4E
102
{ACAD_REACTORS
330
4F
102
}
100
AcDbEntity
  8
Z0_CUT500
370
        25
  6
Continuous
 62
         5
100
AcDbCircle
 10
422.600474483
 20
525.6708739719
 30
0.0
 40
0.09
100
AcDbArc
 50
0.0
 51
180.0
  0
LINE
  5
50
102
{ACAD_REACTORS
330
54
102
}
100
AcDbEntity
  8
Z0_CUT500
370
        25
  6
Continuous
 62
         5
100
AcDbLine
 10
424.3404743941
 20
525.6708738826
 30
0.0
 11
424.3404743941
 21
523.9708738826
 31
0.0
  0
LINE
  5
51
102
{ACAD_REACTORS
330
54
102
}
100
AcDbEntity
  8
Z0_CUT500
370
        25
  6
Continuous
 62
         5
100
AcDbLine
 10
424.1604743941
 20
525.6708738826
 30
0.0
 11
424.1604743941
 21
523.9708738826
 31
0.0
  0
ARC
  5
52
102
{ACAD_REACTORS
330
54
102
}
100
AcDbEntity
  8
Z0_CUT500
370
        25
  6
Continuous
 62
         5
100
AcDbCircle
 10
424.2504743941
 20
523.9708738826
 30
0.0
 40
0.09
100
AcDbArc
 50
180.0
 51
0.0
  0
ARC
  5
53
102
{ACAD_REACTORS
330
54
102
}
100
AcDbEntity
  8
Z0_CUT500
370
        25
  6
Continuous
 62
         5
100
AcDbCircle
 10
424.2504743941
 20
525.6708738826
 30
0.0
 40
0.09
100
AcDbArc
 50
0.0
 51
180.0
  0
CIRCLE
  5
55
100
AcDbEntity
  8
Z0_CUT250
370
        25
  6
Continuous
 62
         3
100
AcDbCircle
 10
416.1843046916
 20
524.3263111044
 30
0.0
 40
0.5015
  0
CIRCLE
  5
56
100
AcDbEntity
  8
Z0_CUT250
370
        25
  6
Continuous
 62
         3
100
AcDbCircle
 10
416.1844889723
 20
522.9513111167
 30
0.0
 40
0.5015
  0
CIRCLE
  5
57
100
AcDbEntity
  8
Z0_CUT250
370
        25
  6
Continuous
 62
         3
100
AcDbCircle
 10
416.1818840336
 20
520.4161487738
 30
0.0
 40
0.7515
  0
CIRCLE
  5
58
100
AcDbEntity
  8
Z0_CUT250
370
        25
  6
Continuous
 62
         3
100
AcDbCircle
 10
416.1841204108
 20
525.701311092
 30
0.0
 40
0.5015
  0
CIRCLE
  5
59
100
AcDbEntity
  8
Z0_CUT500
370
        25
  6
Continuous
 62
         5
100
AcDbCircle
 10
412.0945076962
 20
522.800722792
 30
0.0
 40
0.0825
  0
CIRCLE
  5
5A
100
AcDbEntity
  8
Z0_CUT500
370
        25
  6
Continuous
 62
         5
100
AcDbCircle
 10
422.600474483
 20
527.5176676501
 30
0.0
 40
0.4375
  0
CIRCLE
  5
5B
100
AcDbEntity
  8
Z0_CUT500
370
        25
  6
Continuous
 62
         5
100
AcDbCircle
 10
424.2504743941
 20
527.5171826967
 30
0.0
 40
0.4375
  0
ELLIPSE
  5
5C
100
AcDbEntity
  8
Z0_CUT500
370
        25
  6
Continuous
 62
         5
100
AcDbEllipse
 10
418.0540487498
 20
528.7004484232
 30
0.0
 11
0.0617844302786812
 21
-0.0094304917760996
 31
0.0
210
0.0
220
0.0
230
1.0
 40
1.0
 41
0.0
 42
1.5707963267928899
  0
LINE
  5
5D
100
AcDbEntity
  8
Z0_CUT500
370
        25
  6
Continuous
 62
         5
100
AcDbLine
 10
417.9272233445
 20
527.4553293259
 30
0.0
 11
418.1158331801
 21
528.6910179314
 31
0.0
  0
ELLIPSE
  5
5E
100
AcDbEntity
  8
Z0_CUT500
370
        25
  6
Continuous
 62
         5
100
AcDbEllipse
 10
417.371163472
 20
527.5402037518
 30
0.0
 11
-0.0617844302786859
 21
0.009430491776327
 31
0.0
210
0.0
220
0.0
230
1.0
 40
1.0
 41
0.0
 42
1.5707963267948966
  0
LINE
  5
5F
100
AcDbEntity
  8
Z0_CUT500
370
        25
  6
Continuous
 62
         5
100
AcDbLine
 10
417.4979888773
 20
528.7853228492
 30
0.0
 11
417.3093790418
 21
527.5496342436
 31
0.0
  0
ELLIPSE
  5
60
100
AcDbEntity
  8
Z0_CUT500
370
        25
  6
Continuous
 62
         5
100
AcDbEllipse
 10
417.5597733076
 20
528.7758923574
 30
0.0
 11
0.009430491776201
 21
0.0617844302787788
 31
0.0
210
0.0
220
0.0
230
1.0
 40
1.0
 41
0.0
 42
1.5707963267925571
  0
CIRCLE
  5
61
100
AcDbEntity
  8
Z0_CUT500
370
        25
  6
Continuous
 62
         5
100
AcDbCircle
 10
412.124721983
 20
520.2068236002
 30
0.0
 40
0.0825
  0
CIRCLE
  5
62
100
AcDbEntity
  8
Z0_CUT500
370
        25
  6
Continuous
 62
         5
100
AcDbCircle
 10
420.250278017
 20
520.2068236002
 30
0.0
 40
0.0825
  0
CIRCLE
  5
63
100
AcDbEntity
  8
Z0_CUT500
370
        25
  6
Continuous
 62
         5
100
AcDbCircle
 10
421.5877102943
 20
521.1209761607
 30
0.0
 40
0.0825
  0
CIRCLE
  5
64
100
AcDbEntity
  8
Z0_CUT500
370
        25
  6
Continuous
 62
         5
100
AcDbCircle
 10
422.9251425715
 20
522.0351287212
 30
0.0
 40
0.0825
  0
CIRCLE
  5
65
100
AcDbEntity
  8
Z0_CUT500
370
        25
  6
Continuous
 62
         5
100
AcDbCircle
 10
420.2804923038
 20
522.800722792
 30
0.0
 40
0.0825
  0
CIRCLE
  5
66
102
{ACAD_REACTORS
330
6C
102
}
100
AcDbEntity
  8
Z0_CUT500
370
        25
  6
Continuous
 62
         5
100
AcDbCircle
 10
411.2136002162
 20
525.7277004188
 30
0.0
 40
0.234375
  0
LINE
  5
67
102
{ACAD_REACTORS
330
6C
102
}
100
AcDbEntity
  8
Z0_CUT500
370
        25
  6
Continuous
 62
         5
100
AcDbLine
 10
411.1509168278
 20
524.8683120642
 30
0.0
 11
411.6529406795
 21
525.0420895507
 31
0.0
  0
CIRCLE
  5
68
102
{ACAD_REACTORS
330
6C
102
}
100
AcDbEntity
  8
Z0_CUT500
370
        25
  6
Continuous
 62
         5
100
AcDbCircle
 10
411.8848184185
 20
523.7886256037
 30
0.0
 40
0.234375
  0
LINE
  5
69
102
{ACAD_REACTORS
330
6C
102
}
100
AcDbEntity
  8
Z0_CUT500
370
        25
  6
Continuous
 62
         5
100
AcDbLine
 10
411.304249904
 20
524.4253498421
 30
0.0
 11
411.8062737557
 21
524.5991273286
 31
0.0
  0
ARC
  5
6A
102
{ACAD_REACTORS
330
6C
102
}
100
AcDbEntity
  8
Z0_CUT500
370
        25
  6
Continuous
 62
         5
100
AcDbCircle
 10
411.7296072175
 20
524.8206084396
 30
0.0
 40
0.234375
100
AcDbArc
 50
-70.906508061
 51
109.0934919037
  0
ARC
  5
6B
102
{ACAD_REACTORS
330
6C
102
}
100
AcDbEntity
  8
Z0_CUT500
370
        25
  6
Continuous
 62
         5
100
AcDbCircle
 10
411.2275833659
 20
524.6468309532
 30
0.0
 40
0.234375
100
AcDbArc
 50
109.093491939
 51
-70.9065080964
  0
CIRCLE
  5
6D
102
{ACAD_REACTORS
330
73
102
}
100
AcDbEntity
  8
Z0_CUT500
370
        25
  6
Continuous
 62
         5
100
AcDbCircle
 10
420.4901815796
 20
523.7886256078
 30
0.0
 40
0.234375
  0
LINE
  5
6E
102
{ACAD_REACTORS
330
73
102
}
100
AcDbEntity
  8
Z0_CUT500
370
        25
  6
Continuous
 62
         5
100
AcDbLine
 10
421.0707500951
 20
524.4253498417
 30
0.0
 11
420.5687262439
 21
524.5991273295
 31
0.0
  0
CIRCLE
  5
6F
102
{ACAD_REACTORS
330
73
102
}
100
AcDbEntity
  8
Z0_CUT500
370
        25
  6
Continuous
 62
         5
100
AcDbCircle
 10
421.1613997879
 20
525.7277004209
 30
0.0
 40
0.234375
  0
LINE
  5
70
102
{ACAD_REACTORS
330
73
102
}
100
AcDbEntity
  8
Z0_CUT500
370
        25
  6
Continuous
 62
         5
100
AcDbLine
 10
421.2240831727
 20
524.8683120634
 30
0.0
 11
420.7220593214
 21
525.0420895511
 31
0.0
  0
ARC
  5
71
102
{ACAD_REACTORS
330
73
102
}
100
AcDbEntity
  8
Z0_CUT500
370
        25
  6
Continuous
 62
         5
100
AcDbCircle
 10
420.6453927827
 20
524.8206084403
 30
0.0
 40
0.234375
100
AcDbArc
 50
70.9065079192
 51
-109.0934921161
  0
ARC
  5
72
102
{ACAD_REACTORS
330
73
102
}
100
AcDbEntity
  8
Z0_CUT500
370
        25
  6
Continuous
 62
         5
100
AcDbCircle
 10
421.1474166339
 20
524.6468309525
 30
0.0
 40
0.234375
100
AcDbArc
 50
-109.0934920808
 51
70.9065078839
  0
SPLINE
  5
74
100
AcDbEntity
  8
Z0_CUT250
370
        25
  6
Continuous
 62
         3
100
AcDbSpline
210
0.0
220
0.0
230
1.0
 70
         0
 71
         3
 72
         0
 73
         0
 74
         3
 44
0.000001
 11
413.17021746845029
 21
528.56544657726795
 31
0.0
 11
413.26588427011893
 21
528.5568357760402
 31
0.0
 11
413.32744215837369
 21
528.48310037590659
 31
0.0
  0
SPLINE
  5
75
100
AcDbEntity
  8
Z0_CUT250
370
        25
  6
Continuous
 62
         3
100
AcDbSpline
210
0.0
220
0.0
230
1.0
 70
         0
 71
         3
 72
         0
 73
         0
 74
         3
 44
0.000001
 11
419.1935505987887
 21
528.56544657726806
 31
0.0
 11
419.09788379712006
 21
528.55683577604054
 31
0.0
 11
419.03632590886559
 21
528.48310037590682
 31
0.0
  0
CIRCLE
  5
76
100
AcDbEntity
  8
Z0_CUT500
370
        25
  6
Continuous
 62
         5
100
AcDbCircle
 10
416.1843046916
 20
524.3263111044
 30
0.0
 40
0.4375
  0
CIRCLE
  5
77
100
AcDbEntity
  8
Z0_CUT500
370
        25
  6
Continuous
 62
         5
100
AcDbCircle
 10
416.1844889723
 20
522.9513111167
 30
0.0
 40
0.4375
  0
ARC
  5
78
100
AcDbEntity
  8
Z0_CUT250
370
        25
  6
Continuous
 62
         3
100
AcDbCircle
 10
417.8654389143
 20
527.4647598176
 30
0.0
 40
0.1255
100
AcDbArc
 50
-98.6783833268
 51
-8.6783833267
  0
LINE
  5
79
100
AcDbEntity
  8
Z0_CUT250
370
        25
  6
Continuous
 62
         3
100
AcDbLine
 10
418.0729851773
 20
528.8245115592
 30
0.0
 11
417.5787097351
 21
528.8999554934
 31
0.0
  0
ARC
  5
7A
100
AcDbEntity
  8
Z0_CUT250
370
        25
  6
Continuous
 62
         3
100
AcDbCircle
 10
417.5597733076
 20
528.7758923574
 30
0.0
 40
0.1255
100
AcDbArc
 50
81.3216166732
 51
171.3216166733
  0
LINE
  5
7B
100
AcDbEntity
  8
Z0_CUT250
370
        25
  6
Continuous
 62
         3
100
AcDbLine
 10
417.4357101716
 20
528.7948287849
 30
0.0
 11
417.247100336
 21
527.5591401793
 31
0.0
  0
LINE
  5
7C
100
AcDbEntity
  8
Z0_CUT250
370
        25
  6
Continuous
 62
         3
100
AcDbLine
 10
416.4374994514
 20
528.9868443847
 30
0.0
 11
415.9374995178
 21
528.9871020862
 31
0.0
  0
LINE
  5
7D
100
AcDbEntity
  8
Z0_CUT250
370
        25
  6
Continuous
 62
         3
100
AcDbLine
 10
415.9367258981
 20
527.4861022855
 30
0.0
 11
416.4367258317
 21
527.4858445841
 31
0.0
  0
ARC
  5
7E
100
AcDbEntity
  8
Z0_CUT250
370
        25
  6
Continuous
 62
         3
100
AcDbCircle
 10
416.4367905148
 20
527.6113445674
 30
0.0
 40
0.1255
100
AcDbArc
 50
-90.0295304092
 51
-0.0295304092
  0
ELLIPSE
  5
7F
100
AcDbEntity
  8
Z0_CUT500
370
        25
  6
Continuous
 62
         5
100
AcDbEllipse
 10
417.8654389143
 20
527.4647598176
 30
0.0
 11
0.0617844302786561
 21
-0.0094304917762481
 31
0.0
210
0.0
220
0.0
230
1.0
 40
1.0
 41
4.7123889803846897
 42
6.2831853071801866
  0
LINE
  5
80
100
AcDbEntity
  8
Z0_CUT500
370
        25
  6
Continuous
 62
         5
100
AcDbLine
 10
419.0964572481
 20
528.4643061736
 30
0.0
 11
418.7235564087
 21
527.2712240457
 31
0.0
  0
ELLIPSE
  5
81
100
AcDbEntity
  8
Z0_CUT500
370
        25
  6
Continuous
 62
         5
100
AcDbEllipse
 10
412.7304238616
 20
528.2965007958
 30
0.0
 11
-0.0596541063955594
 21
-0.0186450419724541
 31
0.0
210
0.0
220
0.0
230
-1.0
 40
1.0
 41
0.0
 42
1.5707963267928899
  0
LINE
  5
82
100
AcDbEntity
  8
Z0_CUT500
370
        25
  6
Continuous
 62
         5
100
AcDbLine
 10
415.874934843
 20
528.8616343155
 30
0.0
 11
415.8742905895
 21
527.6116344815
 31
0.0
  0
LINE
  5
83
100
AcDbEntity
  8
Z0_CUT500
370
        25
  6
Continuous
 62
         5
100
AcDbLine
 10
416.4992905065
 20
527.6113123547
 30
0.0
 11
416.49993476
 21
528.8613121887
 31
0.0
  0
LINE
  5
84
100
AcDbEntity
  8
Z0_CUT500
370
        25
  6
Continuous
 62
         5
100
AcDbLine
 10
412.7117788196
 20
528.3561549022
 30
0.0
 11
413.1890116708
 21
528.505315238
 31
0.0
  0
LINE
  5
85
100
AcDbEntity
  8
Z0_CUT500
370
        25
  6
Continuous
 62
         5
100
AcDbLine
 10
413.5992025942
 20
527.1929248973
 30
0.0
 11
413.121969743
 21
527.0437645615
 31
0.0
  0
ELLIPSE
  5
86
100
AcDbEntity
  8
Z0_CUT500
370
        25
  6
Continuous
 62
         5
100
AcDbEllipse
 10
418.7832105151
 20
527.2525790037
 30
0.0
 11
-0.0596541063954734
 21
0.0186450419726721
 31
0.0
210
0.0
220
0.0
230
1.0
 40
1.0
 41
0.0
 42
1.5707963267948966
  0
CIRCLE
  5
87
100
AcDbEntity
  8
Z0_CUT500
370
        25
  6
Continuous
 62
         5
100
AcDbCircle
 10
423.4254740746
 20
525.6808739719
 30
0.0
 40
0.0825
  0
CIRCLE
  5
88
100
AcDbEntity
  8
Z0_CUT500
370
        25
  6
Continuous
 62
         5
100
AcDbCircle
 10
421.6073355799
 20
526.6338255897
 30
0.0
 40
0.0825
  0
CIRCLE
  5
89
100
AcDbEntity
  8
Z0_CUT500
370
        25
  6
Continuous
 62
         5
100
AcDbCircle
 10
421.6073355799
 20
523.7076376309
 30
0.0
 40
0.0825
  0
LINE
  5
8A
100
AcDbEntity
  8
Z0_CUT500
370
        25
  6
Continuous
 62
         5
100
AcDbLine
 10
415.002035087
 20
527.4784193216
 30
0.0
 11
414.5077596447
 21
527.4029753873
 31
0.0
  0
ELLIPSE
  5
8B
100
AcDbEntity
  8
Z0_CUT500
370
        25
  6
Continuous
 62
         5
100
AcDbEllipse
 10
414.8039947597
 20
528.7758923574
 30
0.0
 11
-0.0094304917762004
 21
0.0617844302787789
 31
0.0
210
0.0
220
0.0
230
-1.0
 40
1.0
 41
0.0
 42
1.5707963267925571
  0
LINE
  5
8C
100
AcDbEntity
  8
Z0_CUT500
370
        25
  6
Continuous
 62
         5
100
AcDbLine
 10
414.4365447227
 20
527.4553293259
 30
0.0
 11
414.2479348872
 21
528.6910179314
 31
0.0
  0
LINE
  5
8D
100
AcDbEntity
  8
Z0_CUT500
370
        25
  6
Continuous
 62
         5
100
AcDbLine
 10
414.86577919
 20
528.7853228492
 30
0.0
 11
415.0543890255
 21
527.5496342436
 31
0.0
  0
ELLIPSE
  5
8E
100
AcDbEntity
  8
Z0_CUT500
370
        25
  6
Continuous
 62
         5
100
AcDbEllipse
 10
414.3097193174
 20
528.7004484232
 30
0.0
 11
-0.0617844302787097
 21
-0.0094304917760985
 31
0.0
210
0.0
220
0.0
230
-1.0
 40
1.0
 41
0.0
 42
1.5707963267928899
  0
LINE
  5
8F
100
AcDbEntity
  8
Z0_CUT500
370
        25
  6
Continuous
 62
         5
100
AcDbLine
 10
413.0436705946
 20
527.084773626
 30
0.0
 11
412.6707697552
 21
528.2778557539
 31
0.0
  0
ELLIPSE
  5
90
100
AcDbEntity
  8
Z0_CUT500
370
        25
  6
Continuous
 62
         5
100
AcDbEllipse
 10
413.2076567127
 20
528.4456611316
 30
0.0
 11
-0.0186450419725616
 21
0.0596541063955843
 31
0.0
210
0.0
220
0.0
230
-1.0
 40
1.0
 41
0.0
 42
1.5707963267925571
  0
LINE
  5
91
100
AcDbEntity
  8
Z0_CUT500
370
        25
  6
Continuous
 62
         5
100
AcDbLine
 10
416.437466981
 20
528.9238443931
 30
0.0
 11
415.9374670474
 21
528.9241020945
 31
0.0
  0
ELLIPSE
  5
92
100
AcDbEntity
  8
Z0_CUT500
370
        25
  6
Continuous
 62
         5
100
AcDbEllipse
 10
415.9374348347
 20
528.8616021028
 30
0.0
 11
0.0000322126778658
 21
0.0624999916988607
 31
0.0
210
0.0
220
0.0
230
1.0
 40
1.0
 41
0.0
 42
1.5707963267925571
  0
LINE
  5
93
100
AcDbEntity
  8
Z0_CUT500
370
        25
  6
Continuous
 62
         5
100
AcDbLine
 10
419.3200974726
 20
527.084773626
 30
0.0
 11
419.6929983121
 21
528.2778557539
 31
0.0
  0
LINE
  5
94
100
AcDbEntity
  8
Z0_CUT500
370
        25
  6
Continuous
 62
         5
100
AcDbLine
 10
414.3002888257
 20
528.7622328535
 30
0.0
 11
414.7945642679
 21
528.8376767877
 31
0.0
  0
LINE
  5
95
100
AcDbEntity
  8
Z0_CUT250
370
        25
  6
Continuous
 62
         3
100
AcDbLine
 10
414.29078289
 20
528.8245115592
 30
0.0
 11
414.7850583322
 21
528.8999554934
 31
0.0
  0
ARC
  5
96
100
AcDbEntity
  8
Z0_CUT250
370
        25
  6
Continuous
 62
         3
100
AcDbCircle
 10
414.8039947597
 20
528.7758923574
 30
0.0
 40
0.1255
100
AcDbArc
 50
8.6783833266
 51
98.6783833268
  0
ARC
  5
97
100
AcDbEntity
  8
Z0_CUT250
370
        25
  6
Continuous
 62
         3
100
AcDbCircle
 10
414.9926045952
 20
527.5402037518
 30
0.0
 40
0.1255
100
AcDbArc
 50
-81.3216166732
 51
8.6783833266
  0
ARC
  5
98
100
AcDbEntity
  8
Z0_CUT250
370
        25
  6
Continuous
 62
         3
100
AcDbCircle
 10
414.3097193174
 20
528.7004484232
 30
0.0
 40
0.1255
100
AcDbArc
 50
98.6783833268
 51
-171.3216166733
  0
ARC
  5
99
100
AcDbEntity
  8
Z0_CUT250
370
        25
  6
Continuous
 62
         3
100
AcDbCircle
 10
413.5805575522
 20
527.2525790037
 30
0.0
 40
0.1255
100
AcDbArc
 50
-72.6432333464
 51
17.3567666535
  0
LINE
  5
9A
100
AcDbEntity
  8
Z0_CUT250
370
        25
  6
Continuous
 62
         3
100
AcDbLine
 10
412.6929846173
 20
528.4162862415
 30
0.0
 11
413.1702174685
 21
528.5654465773
 31
0.0
  0
LINE
  5
9B
100
AcDbEntity
  8
Z0_CUT250
370
        25
  6
Continuous
 62
         3
100
AcDbLine
 10
413.3274421584
 20
528.4831003759
 30
0.0
 11
413.7003429978
 21
527.290018248
 31
0.0
  0
ELLIPSE
  5
9C
100
AcDbEntity
  8
Z0_CUT500
370
        25
  6
Continuous
 62
         5
100
AcDbEllipse
 10
419.6333442057
 20
528.2965007958
 30
0.0
 11
0.0596541063955594
 21
-0.0186450419724541
 31
0.0
210
0.0
220
0.0
230
1.0
 40
1.0
 41
0.0
 42
1.5707963267928899
  0
LINE
  5
9D
100
AcDbEntity
  8
Z0_CUT500
370
        25
  6
Continuous
 62
         5
100
AcDbLine
 10
415.9367583685
 20
527.5491022772
 30
0.0
 11
416.4367583021
 21
527.5488445757
 31
0.0
  0
ELLIPSE
  5
9E
100
AcDbEntity
  8
Z0_CUT500
370
        25
  6
Continuous
 62
         5
100
AcDbEllipse
 10
416.4374347683
 20
528.8613444014
 30
0.0
 11
0.062499991698805
 21
-0.0000322126777706
 31
0.0
210
0.0
220
0.0
230
1.0
 40
1.0
 41
0.0
 42
1.5707963267928899
  0
ELLIPSE
  5
9F
100
AcDbEntity
  8
Z0_CUT500
370
        25
  6
Continuous
 62
         5
100
AcDbEllipse
 10
415.9367905812
 20
527.6116022689
 30
0.0
 11
-0.0624999916987878
 21
0.0000322126780043
 31
0.0
210
0.0
220
0.0
230
1.0
 40
1.0
 41
0.0
 42
1.5707963267948966
  0
ELLIPSE
  5
A0
100
AcDbEntity
  8
Z0_CUT500
370
        25
  6
Continuous
 62
         5
100
AcDbEllipse
 10
413.103324701
 20
527.1034186679
 30
0.0
 11
-0.0596541063954559
 21
-0.0186450419725897
 31
0.0
210
0.0
220
0.0
230
-1.0
 40
1.0
 41
4.7123889803846897
 42
6.2831853071801866
  0
LINE
  5
A1
100
AcDbEntity
  8
Z0_CUT500
370
        25
  6
Continuous
 62
         5
100
AcDbLine
 10
413.2673108191
 20
528.4643061736
 30
0.0
 11
413.6402116586
 21
527.2712240457
 31
0.0
  0
ELLIPSE
  5
A2
100
AcDbEntity
  8
Z0_CUT500
370
        25
  6
Continuous
 62
         5
100
AcDbEllipse
 10
419.2604433662
 20
527.1034186679
 30
0.0
 11
0.0596541063954559
 21
-0.0186450419725897
 31
0.0
210
0.0
220
0.0
230
1.0
 40
1.0
 41
4.7123889803846897
 42
6.2831853071801866
  0
LINE
  5
A3
100
AcDbEntity
  8
Z0_CUT500
370
        25
  6
Continuous
 62
         5
100
AcDbLine
 10
418.7645654731
 20
527.1929248973
 30
0.0
 11
419.2417983242
 21
527.0437645615
 31
0.0
  0
CIRCLE
  5
A4
100
AcDbEntity
  8
Z0_CUT250
370
        25
  6
Continuous
 62
         3
100
AcDbCircle
 10
424.2504743941
 20
527.5171826967
 30
0.0
 40
0.5015
  0
CIRCLE
  5
A5
100
AcDbEntity
  8
Z0_CUT250
370
        25
  6
Continuous
 62
         3
100
AcDbCircle
 10
422.600474483
 20
527.5176676501
 30
0.0
 40
0.5015
  0
CIRCLE
  5
A6
100
AcDbEntity
  8
Z0_CUT500
370
        25
  6
Continuous
 62
         5
100
AcDbCircle
 10
416.1841204108
 20
525.701311092
 30
0.0
 40
0.4375
  0
CIRCLE
  5
A7
100
AcDbEntity
  8
Z0_CUT500
370
        25
  6
Continuous
 62
         5
100
AcDbCircle
 10
416.1818840336
 20
520.4161487738
 30
0.0
 40
0.6875
  0
LINE
  5
A8
100
AcDbEntity
  8
Z0_CUT250
370
        25
  6
Continuous
 62
         3
100
AcDbLine
 10
414.9280578957
 20
528.7948287849
 30
0.0
 11
415.1166677312
 21
527.5591401793
 31
0.0
  0
CIRCLE
  5
A9
100
AcDbEntity
  8
Z0_CUT500
370
        25
  6
Continuous
 62
         5
100
AcDbCircle
 10
422.2564264329
 20
521.5780524409
 30
0.0
 40
0.234375
  0
CIRCLE
  5
AA
100
AcDbEntity
  8
Z0_CUT500
370
        25
  6
Continuous
 62
         5
100
AcDbCircle
 10
420.916930217
 20
520.6624891512
 30
0.0
 40
0.234375
  0
LINE
  5
AB
100
AcDbEntity
  8
Z0_CUT500
370
        25
  6
Continuous
 62
         5
100
AcDbLine
 10
418.0634792416
 20
528.7622328535
 30
0.0
 11
417.5692037993
 21
528.8376767877
 31
0.0
  0
LINE
  5
AC
100
AcDbEntity
  8
Z0_CUT500
370
        25
  6
Continuous
 62
         5
100
AcDbLine
 10
417.3617329803
 20
527.4784193216
 30
0.0
 11
417.8560084225
 21
527.4029753873
 31
0.0
  0
LINE
  5
AD
100
AcDbEntity
  8
Z0_CUT250
370
        25
  6
Continuous
 62
         3
100
AcDbLine
 10
413.6179967965
 20
527.1327935581
 30
0.0
 11
413.1407639453
 21
526.9836332223
 31
0.0
  0
ARC
  5
AE
100
AcDbEntity
  8
Z0_CUT250
370
        25
  6
Continuous
 62
         3
100
AcDbCircle
 10
412.7304238616
 20
528.2965007958
 30
0.0
 40
0.1255
100
AcDbArc
 50
107.3567666535
 51
-162.6432333465
  0
ARC
  5
AF
100
AcDbEntity
  8
Z0_CUT250
370
        25
  6
Continuous
 62
         3
100
AcDbCircle
 10
418.7832105151
 20
527.2525790037
 30
0.0
 40
0.1255
100
AcDbArc
 50
162.6432333466
 51
-107.3567666537
  0
LINE
  5
B0
100
AcDbEntity
  8
Z0_CUT250
370
        25
  6
Continuous
 62
         3
100
AcDbLine
 10
419.0363259089
 20
528.4831003759
 30
0.0
 11
418.6634250694
 21
527.290018248
 31
0.0
  0
LINE
  5
B1
100
AcDbEntity
  8
Z0_CUT250
370
        25
  6
Continuous
 62
         3
100
AcDbLine
 10
419.67078345
 20
528.4162862415
 30
0.0
 11
419.1935505988
 21
528.5654465773
 31
0.0
  0
ARC
  5
B2
100
AcDbEntity
  8
Z0_CUT250
370
        25
  6
Continuous
 62
         3
100
AcDbCircle
 10
417.371163472
 20
527.5402037518
 30
0.0
 40
0.1255
100
AcDbArc
 50
171.3216166733
 51
-98.6783833268
  0
LINE
  5
B3
100
AcDbEntity
  8
Z0_CUT250
370
        25
  6
Continuous
 62
         3
100
AcDbLine
 10
417.3522270446
 20
527.4161406158
 30
0.0
 11
417.8465024868
 21
527.3406966816
 31
0.0
  0
LINE
  5
B4
100
AcDbEntity
  8
Z0_CUT250
370
        25
  6
Continuous
 62
         3
100
AcDbLine
 10
417.9895020503
 20
527.4458233901
 30
0.0
 11
418.1781118858
 21
528.6815119957
 31
0.0
  0
ARC
  5
B5
100
AcDbEntity
  8
Z0_CUT250
370
        25
  6
Continuous
 62
         3
100
AcDbCircle
 10
415.9367905812
 20
527.6116022689
 30
0.0
 40
0.1255
100
AcDbArc
 50
179.9704695908
 51
-90.0295304093
  0
LINE
  5
B6
100
AcDbEntity
  8
Z0_CUT250
370
        25
  6
Continuous
 62
         3
100
AcDbLine
 10
415.8119348514
 20
528.8616667859
 30
0.0
 11
415.8112905979
 21
527.6116669519
 31
0.0
  0
LINE
  5
B7
100
AcDbEntity
  8
Z0_CUT250
370
        25
  6
Continuous
 62
         3
100
AcDbLine
 10
414.374266017
 20
527.4458233901
 30
0.0
 11
414.1856561814
 21
528.6815119957
 31
0.0
  0
ARC
  5
B8
100
AcDbEntity
  8
Z0_CUT250
370
        25
  6
Continuous
 62
         3
100
AcDbCircle
 10
414.498329153
 20
527.4647598176
 30
0.0
 40
0.1255
100
AcDbArc
 50
-171.3216166733
 51
-81.3216166732
  0
LINE
  5
B9
100
AcDbEntity
  8
Z0_CUT250
370
        25
  6
Continuous
 62
         3
100
AcDbLine
 10
415.0115410227
 20
527.4161406158
 30
0.0
 11
414.5172655805
 21
527.3406966816
 31
0.0
  0
ARC
  5
BA
100
AcDbEntity
  8
Z0_CUT250
370
        25
  6
Continuous
 62
         3
100
AcDbCircle
 10
413.103324701
 20
527.1034186679
 30
0.0
 40
0.1255
100
AcDbArc
 50
-162.6432333465
 51
-72.6432333465
  0
LINE
  5
BB
100
AcDbEntity
  8
Z0_CUT250
370
        25
  6
Continuous
 62
         3
100
AcDbLine
 10
412.9835392554
 20
527.0659794237
 30
0.0
 11
412.6106384159
 21
528.2590615516
 31
0.0
  0
ARC
  5
BC
100
AcDbEntity
  8
Z0_CUT250
370
        25
  6
Continuous
 62
         3
100
AcDbCircle
 10
419.6333442057
 20
528.2965007958
 30
0.0
 40
0.1255
100
AcDbArc
 50
-17.3567666535
 51
72.6432333465
  0
ELLIPSE
  5
BD
100
AcDbEntity
  8
Z0_CUT500
370
        25
  6
Continuous
 62
         5
100
AcDbEllipse
 10
419.1561113545
 20
528.4456611316
 30
0.0
 11
0.0186450419725616
 21
0.0596541063955843
 31
0.0
210
0.0
220
0.0
230
1.0
 40
1.0
 41
0.0
 42
1.5707963267925571
  0
LINE
  5
BE
100
AcDbEntity
  8
Z0_CUT500
370
        25
  6
Continuous
 62
         5
100
AcDbLine
 10
419.6519892476
 20
528.3561549022
 30
0.0
 11
419.1747563965
 21
528.505315238
 31
0.0
  0
ELLIPSE
  5
BF
100
AcDbEntity
  8
Z0_CUT500
370
        25
  6
Continuous
 62
         5
100
AcDbEllipse
 10
416.4367905148
 20
527.6113445674
 30
0.0
 11
0.0624999916987465
 21
-0.0000322126779308
 31
0.0
210
0.0
220
0.0
230
1.0
 40
1.0
 41
4.7123889803846897
 42
6.2831853071801866
  0
ELLIPSE
  5
C0
100
AcDbEntity
  8
Z0_CUT500
370
        25
  6
Continuous
 62
         5
100
AcDbEllipse
 10
413.5805575522
 20
527.2525790037
 30
0.0
 11
0.0596541063954734
 21
0.0186450419726721
 31
0.0
210
0.0
220
0.0
230
-1.0
 40
1.0
 41
0.0
 42
1.5707963267948966
  0
LINE
  5
C1
100
AcDbEntity
  8
Z0_CUT500
370
        25
  6
Continuous
 62
         5
100
AcDbLine
 10
425.3750294415
 20
516.1649806774
 30
0.0
 11
425.3750294415
 21
512.5000043383
 31
0.0
  0
LINE
  5
C2
100
AcDbEntity
  8
Z0_CUT500
370
        25
  6
Continuous
 62
         5
100
AcDbLine
 10
425.3750294415
 20
516.6649806774
 30
0.0
 11
427.2500294415
 21
516.6649806774
 31
0.0
  0
ELLIPSE
  5
C3
102
{ACAD_REACTORS
330
C9
102
}
100
AcDbEntity
  8
Z0_CUT500
370
        25
  6
Continuous
 62
         5
100
AcDbEllipse
 10
422.6024704864
 20
516.4271578956
 30
0.0
 11
0.0041159654351233
 21
0.0849002875645131
 31
0.0
210
0.0
220
0.0
230
1.0
 40
1.0
 41
4.7123889803846897
 42
10.995574287563418
  0
CIRCLE
  5
C4
102
{ACAD_REACTORS
330
C9
102
}
100
AcDbEntity
  8
Z0_CUT500
370
        25
  6
Continuous
 62
         5
100
AcDbCircle
 10
419.9044933587
 20
515.115319477
 30
0.0
 40
0.085
  0
CIRCLE
  5
C5
102
{ACAD_REACTORS
330
C9
102
}
100
AcDbEntity
  8
Z0_CUT500
370
        25
  6
Continuous
 62
         5
100
AcDbCircle
 10
419.0845943752
 20
516.8015551239
 30
0.0
 40
0.085
  0
CIRCLE
  5
C6
102
{ACAD_REACTORS
330
C9
102
}
100
AcDbEntity
  8
Z0_CUT500
370
        25
  6
Continuous
 62
         5
100
AcDbCircle
 10
421.7825715029
 20
518.1133935425
 30
0.0
 40
0.085
  0
ELLIPSE
  5
C7
102
{ACAD_REACTORS
330
C9
102
}
100
AcDbEntity
  8
Z0_CUT500
370
        25
  6
Continuous
 62
         5
100
AcDbEllipse
 10
423.951458912
 20
517.0830770377
 30
0.0
 11
0.0041159654351233
 21
0.0849002875645131
 31
0.0
210
0.0
220
0.0
230
1.0
 40
1.0
 41
4.7123889803846897
 42
10.995574287563349
  0
CIRCLE
  5
C8
102
{ACAD_REACTORS
330
C9
102
}
100
AcDbEntity
  8
Z0_CUT500
370
        25
  6
Continuous
 62
         5
100
AcDbCircle
 10
423.1315599501
 20
518.7693126951
 30
0.0
 40
0.085
  0
ELLIPSE
  5
CA
102
{ACAD_REACTORS
330
CE
102
}
100
AcDbEntity
  8
Z0_CUT500
370
        25
  6
Continuous
 62
         5
100
AcDbEllipse
 10
418.265619849
 20
516.4033448365
 30
0.0
 11
0.0038159459205929
 21
0.0623901643063067
 31
0.0
210
0.0
220
0.0
230
1.0
 40
1.0
 41
4.7123889803846897
 42
10.995574287564276
  0
ELLIPSE
  5
CB
102
{ACAD_REACTORS
330
CE
102
}
100
AcDbEntity
  8
Z0_CUT500
370
        25
  6
Continuous
 62
         5
100
AcDbEllipse
 10
417.2868674758
 20
513.8425502738
 30
0.0
 11
0.0038159459205929
 21
0.0623901643063067
 31
0.0
210
0.0
220
0.0
230
1.0
 40
1.0
 41
4.7123889803846897
 42
10.99557428756366
  0
ELLIPSE
  5
CC
102
{ACAD_REACTORS
330
CE
102
}
100
AcDbEntity
  8
Z0_CUT500
370
        25
  6
Continuous
 62
         5
100
AcDbEllipse
 10
419.0855188324
 20
514.7171091896
 30
0.0
 11
0.0038159459205929
 21
0.0623901643063067
 31
0.0
210
0.0
220
0.0
230
1.0
 40
1.0
 41
4.7123889803846897
 42
10.995574287564276
  0
ELLIPSE
  5
CD
102
{ACAD_REACTORS
330
CE
102
}
100
AcDbEntity
  8
Z0_CUT500
370
        25
  6
Continuous
 62
         5
100
AcDbEllipse
 10
420.0642712056
 20
517.2779037522
 30
0.0
 11
0.0623901643063505
 21
-0.0038159459207918
 31
0.0
210
0.0
220
0.0
230
1.0
 40
1.0
 41
0.0
 42
6.2831853071790187
  0
CIRCLE
  5
CF
100
AcDbEntity
  8
Z0_CUT500
370
        25
  6
Continuous
 62
         5
100
AcDbCircle
 10
424.9502455282
 20
517.1395189662
 30
0.0
 40
0.0445
  0
LINE
  5
D0
100
AcDbEntity
  8
Z0_CUT500
370
        25
  6
Continuous
 62
         5
100
AcDbLine
 10
426.1252455282
 20
518.3399806774
 30
0.0
 11
426.1252455282
 21
516.6399806774
 31
0.0
  0
ARC
  5
D1
100
AcDbEntity
  8
Z0_CUT500
370
        25
  6
Continuous
 62
         5
100
AcDbCircle
 10
426.0352455282
 20
518.3399806774
 30
0.0
 40
0.09
100
AcDbArc
 50
0.0
 51
180.0
  0
ARC
  5
D2
100
AcDbEntity
  8
Z0_CUT500
370
        25
  6
Continuous
 62
         5
100
AcDbCircle
 10
426.0352455282
 20
516.6399806774
 30
0.0
 40
0.09
100
AcDbArc
 50
180.0
 51
0.0
  0
LINE
  5
D3
100
AcDbEntity
  8
Z0_CUT500
370
        25
  6
Continuous
 62
         5
100
AcDbLine
 10
425.9452455282
 20
518.3399806774
 30
0.0
 11
425.9452455282
 21
516.6399806774
 31
0.0
  0
CIRCLE
  5
D4
100
AcDbEntity
  8
Z0_CUT500
370
        25
  6
Continuous
 62
         5
100
AcDbCircle
 10
412.9179091149
 20
519.6646697582
 30
0.0
 40
0.25
  0
CIRCLE
  5
D5
100
AcDbEntity
  8
Z0_CUT500
370
        25
  6
Continuous
 62
         5
100
AcDbCircle
 10
419.4570908851
 20
519.6646697582
 30
0.0
 40
0.25
  0
CIRCLE
  5
D6
100
AcDbEntity
  8
Z0_CUT500
370
        25
  6
Continuous
 62
         5
100
AcDbCircle
 10
423.4254740746
 20
526.3047700672
 30
0.0
 40
0.1225
  0
CIRCLE
  5
D7
100
AcDbEntity
  8
Z0_CUT500
370
        25
  6
Continuous
 62
         5
100
AcDbCircle
 10
427.0000294415
 20
521.5000043383
 30
0.0
 40
0.0625
  0
CIRCLE
  5
D8
100
AcDbEntity
  8
Z0_CUT500
370
        25
  6
Continuous
 62
         5
100
AcDbCircle
 10
425.0710960951
 20
524.0126300109
 30
0.0
 40
0.0625
  0
CIRCLE
  5
D9
100
AcDbEntity
  8
Z0_CUT500
370
        25
  6
Continuous
 62
         5
100
AcDbCircle
 10
425.0710960951
 20
521.5524806774
 30
0.0
 40
0.0625
  0
CIRCLE
  5
DA
100
AcDbEntity
  8
Z0_CUT500
370
        25
  6
Continuous
 62
         5
100
AcDbCircle
 10
420.9439139419
 20
523.2541802114
 30
0.0
 40
0.234375
  0
CIRCLE
  5
DB
100
AcDbEntity
  8
Z0_CUT500
370
        25
  6
Continuous
 62
         5
100
AcDbCircle
 10
421.6073355799
 20
525.1707316103
 30
0.0
 40
0.234375
  0
CIRCLE
  5
DC
100
AcDbEntity
  8
Z0_CUT500
370
        25
  6
Continuous
 62
         5
100
AcDbCircle
 10
427.0000294415
 20
527.5000043383
 30
0.0
 40
0.0625
  0
CIRCLE
  5
DD
100
AcDbEntity
  8
Z0_CUT500
370
        25
  6
Continuous
 62
         5
100
AcDbCircle
 10
425.1254743941
 20
527.5000043383
 30
0.0
 40
0.0625
  0
LINE
  5
DE
100
AcDbEntity
  8
Z0_CUT250
370
        25
  6
Continuous
 62
         3
100
AcDbLine
 10
419.3802288119
 20
527.0659794237
 30
0.0
 11
419.7531296513
 21
528.2590615516
 31
0.0
  0
ARC
  5
DF
100
AcDbEntity
  8
Z0_CUT250
370
        25
  6
Continuous
 62
         3
100
AcDbCircle
 10
419.2604433662
 20
527.1034186679
 30
0.0
 40
0.1255
100
AcDbArc
 50
-107.3567666536
 51
-17.3567666535
  0
LINE
  5
E0
100
AcDbEntity
  8
Z0_CUT250
370
        25
  6
Continuous
 62
         3
100
AcDbLine
 10
418.7457712708
 20
527.1327935581
 30
0.0
 11
419.2230041219
 21
526.9836332223
 31
0.0
  0
ARC
  5
E1
100
AcDbEntity
  8
Z0_CUT250
370
        25
  6
Continuous
 62
         3
100
AcDbCircle
 10
418.0540487498
 20
528.7004484232
 30
0.0
 40
0.1255
100
AcDbArc
 50
-8.6783833267
 51
81.3216166732
  0
LINE
  5
E2
100
AcDbEntity
  8
Z0_CUT250
370
        25
  6
Continuous
 62
         3
100
AcDbLine
 10
416.5622904981
 20
527.6112798844
 30
0.0
 11
416.5629347517
 21
528.8612797183
 31
0.0
  0
ARC
  5
E3
100
AcDbEntity
  8
Z0_CUT250
370
        25
  6
Continuous
 62
         3
100
AcDbCircle
 10
416.4374347683
 20
528.8613444014
 30
0.0
 40
0.1255
100
AcDbArc
 50
-0.0295304091
 51
89.9704695908
  0
LINE
  5
E4
102
{ACAD_REACTORS
330
E8
102
}
100
AcDbEntity
  8
Z0_CUT500
370
        25
  6
Continuous
 62
         5
100
AcDbLine
 10
409.8679560774
 20
525.6908739719
 30
0.0
 11
409.8679560774
 21
523.9908739719
 31
0.0
  0
LINE
  5
E5
102
{ACAD_REACTORS
330
E8
102
}
100
AcDbEntity
  8
Z0_CUT500
370
        25
  6
Continuous
 62
         5
100
AcDbLine
 10
409.6879560774
 20
525.6908739719
 30
0.0
 11
409.6879560774
 21
523.9908739719
 31
0.0
  0
ARC
  5
E6
102
{ACAD_REACTORS
330
E8
102
}
100
AcDbEntity
  8
Z0_CUT500
370
        25
  6
Continuous
 62
         5
100
AcDbCircle
 10
409.7779560774
 20
523.9908739719
 30
0.0
 40
0.09
100
AcDbArc
 50
180.0
 51
0.0
  0
ARC
  5
E7
102
{ACAD_REACTORS
330
E8
102
}
100
AcDbEntity
  8
Z0_CUT500
370
        25
  6
Continuous
 62
         5
100
AcDbCircle
 10
409.7779560774
 20
525.6908739719
 30
0.0
 40
0.09
100
AcDbArc
 50
0.0
 51
180.0
  0
CIRCLE
  5
E9
100
AcDbEntity
  8
Z0_CUT500
370
        25
  6
Continuous
 62
         5
100
AcDbCircle
 10
410.7676644201
 20
526.6338255897
 30
0.0
 40
0.0825
  0
CIRCLE
  5
EA
100
AcDbEntity
  8
Z0_CUT500
370
        25
  6
Continuous
 62
         5
100
AcDbCircle
 10
410.7676644201
 20
523.7076376309
 30
0.0
 40
0.0825
  0
CIRCLE
  5
EB
100
AcDbEntity
  8
Z0_CUT500
370
        25
  6
Continuous
 62
         5
100
AcDbCircle
 10
408.9495259254
 20
525.6808739719
 30
0.0
 40
0.0825
  0
CIRCLE
  5
EC
100
AcDbEntity
  8
Z0_CUT500
370
        25
  6
Continuous
 62
         5
100
AcDbCircle
 10
409.4498574285
 20
522.0351287212
 30
0.0
 40
0.0825
  0
CIRCLE
  5
ED
100
AcDbEntity
  8
Z0_CUT500
370
        25
  6
Continuous
 62
         5
100
AcDbCircle
 10
410.7872897057
 20
521.1209761607
 30
0.0
 40
0.0825
  0
LINE
  5
EE
100
AcDbEntity
  8
Z0_CUT500
370
        25
  6
Continuous
 62
         5
100
AcDbLine
 10
411.8583772464
 20
512.5000043383
 30
0.0
 11
411.8583772464
 21
515.0234143589
 31
0.0
  0
LINE
  5
EF
100
AcDbEntity
  8
Z0_CUT500
370
        25
  6
Continuous
 62
         5
100
AcDbLine
 10
415.7342477841
 20
515.1837418638
 30
0.0
 11
417.9773710046
 21
512.5000043383
 31
0.0
  0
ARC
  5
F0
100
AcDbEntity
  8
Z0_CUT500
370
        25
  6
Continuous
 62
         5
100
AcDbCircle
 10
415.5424273181
 20
515.0234143589
 30
0.0
 40
0.25
100
AcDbArc
 50
39.8895738737
 51
90.0
  0
LINE
  5
F1
100
AcDbEntity
  8
Z0_CUT500
370
        25
  6
Continuous
 62
         5
100
AcDbLine
 10
412.1083772464
 20
515.2734143589
 30
0.0
 11
415.5424273181
 21
515.2734143589
 31
0.0
  0
ARC
  5
F2
100
AcDbEntity
  8
Z0_CUT500
370
        25
  6
Continuous
 62
         5
100
AcDbCircle
 10
412.1083772464
 20
515.0234143589
 30
0.0
 40
0.25
100
AcDbArc
 50
90.0
 51
180.0
  0
ARC
  5
F3
100
AcDbEntity
  8
Z0_CUT500
370
        25
  6
Continuous
 62
         5
100
AcDbCircle
 10
417.3970515979
 20
514.3637964501
 30
0.0
 40
0.25
100
AcDbArc
 50
-140.1104261263
 51
-64.2907837356
  0
ARC
  5
F4
100
AcDbEntity
  8
Z0_CUT500
370
        25
  6
Continuous
 62
         5
100
AcDbCircle
 10
416.7176087997
 20
515.1767014735
 30
0.0
 40
0.25
100
AcDbArc
 50
115.7092162645
 51
-140.1104261263
  0
LINE
  5
F5
100
AcDbEntity
  8
Z0_CUT500
370
        25
  6
Continuous
 62
         5
100
AcDbLine
 10
417.5055026031
 20
514.1385446367
 30
0.0
 11
419.2932569839
 21
514.9992869177
 31
0.0
  0
LINE
  5
F6
100
AcDbEntity
  8
Z0_CUT500
370
        25
  6
Continuous
 62
         5
100
AcDbLine
 10
417.2052311319
 20
514.2034689452
 30
0.0
 11
416.5257883337
 21
515.0163739685
 31
0.0
  0
LINE
  5
F7
100
AcDbEntity
  8
Z0_CUT500
370
        25
  6
Continuous
 62
         5
100
AcDbLine
 10
418.6307608773
 20
516.3752856796
 30
0.0
 11
416.6091577945
 21
515.4019532869
 31
0.0
  0
ARC
  5
F8
100
AcDbEntity
  8
Z0_CUT500
370
        25
  6
Continuous
 62
         5
100
AcDbCircle
 10
419.1848059787
 20
515.2245387312
 30
0.0
 40
0.25
100
AcDbArc
 50
-64.2907837355
 51
25.709216376
  0
LINE
  5
F9
100
AcDbEntity
  8
Z0_CUT500
370
        25
  6
Continuous
 62
         5
100
AcDbLine
 10
419.4100577919
 20
515.3329897369
 30
0.0
 11
418.9644636957
 21
516.2584848718
 31
0.0
  0
ARC
  5
FA
100
AcDbEntity
  8
Z0_CUT500
370
        25
  6
Continuous
 62
         5
100
AcDbCircle
 10
418.7392118825
 20
516.1500338661
 30
0.0
 40
0.25
100
AcDbArc
 50
25.709216376
 51
115.7092162644
  0
LINE
  5
FB
102
{ACAD_REACTORS
330
103
102
}
100
AcDbEntity
  8
Z0_CUT500
370
        25
  6
Continuous
 62
         5
100
AcDbLine
 10
424.2621124771
 20
519.1164446698
 30
0.0
 11
422.3652860242
 21
518.2031830468
 31
0.0
  0
ARC
  5
FC
102
{ACAD_REACTORS
330
103
102
}
100
AcDbEntity
  8
Z0_CUT500
370
        25
  6
Continuous
 62
         5
100
AcDbCircle
 10
422.4466246316
 20
518.0342443569
 30
0.0
 40
0.1875
100
AcDbArc
 50
115.7093361451
 51
-154.2906638102
  0
LINE
  5
FD
102
{ACAD_REACTORS
330
103
102
}
100
AcDbEntity
  8
Z0_CUT500
370
        25
  6
Continuous
 62
         5
100
AcDbLine
 10
422.2776859418
 20
517.9529057493
 30
0.0
 11
422.7782211527
 21
516.91330395
 31
0.0
  0
LINE
  5
FE
102
{ACAD_REACTORS
330
103
102
}
100
AcDbEntity
  8
Z0_CUT500
370
        25
  6
Continuous
 62
         5
100
AcDbLine
 10
425.0129249855
 20
517.9892427765
 30
0.0
 11
424.5123897747
 21
519.0288445867
 31
0.0
  0
ARC
  5
FF
102
{ACAD_REACTORS
330
103
102
}
100
AcDbEntity
  8
Z0_CUT500
370
        25
  6
Continuous
 62
         5
100
AcDbCircle
 10
424.8439862953
 20
517.9079041697
 30
0.0
 40
0.1875
100
AcDbArc
 50
-64.290664126
 51
25.709335952
  0
LINE
  5
100
102
{ACAD_REACTORS
330
103
102
}
100
AcDbEntity
  8
Z0_CUT500
370
        25
  6
Continuous
 62
         5
100
AcDbLine
 10
423.0284984492
 20
516.8257038672
 30
0.0
 11
424.9253249019
 21
517.7389654794
 31
0.0
  0
ARC
  5
101
102
{ACAD_REACTORS
330
103
102
}
100
AcDbEntity
  8
Z0_CUT500
370
        25
  6
Continuous
 62
         5
100
AcDbCircle
 10
424.3434510845
 20
518.9475059799
 30
0.0
 40
0.1875
100
AcDbArc
 50
25.7093359521
 51
115.7093361451
  0
ARC
  5
102
102
{ACAD_REACTORS
330
103
102
}
100
AcDbEntity
  8
Z0_CUT500
370
        25
  6
Continuous
 62
         5
100
AcDbCircle
 10
422.9471598426
 20
516.9946425575
 30
0.0
 40
0.1875
100
AcDbArc
 50
-154.2906638102
 51
-64.290664126
  0
LINE
  5
104
100
AcDbEntity
  8
Z0_CUT500
370
        25
  6
Continuous
 62
         5
100
AcDbLine
 10
417.9773710046
 20
512.5000043383
 30
0.0
 11
425.3750294415
 21
512.5000043383
 31
0.0
  0
CIRCLE
  5
105
100
AcDbEntity
  8
Z0_CUT500
370
        25
  6
Continuous
 62
         5
100
AcDbCircle
 10
424.9502455282
 20
517.1395189662
 30
0.0
 40
0.0445
  0
CIRCLE
  5
106
100
AcDbEntity
  8
Z0_CUT500
370
        25
  6
Continuous
 62
         5
100
AcDbCircle
 10
424.4750019952
 20
515.6550043383
 30
0.0
 40
0.1225
  0
CIRCLE
  5
107
100
AcDbEntity
  8
Z0_CUT500
370
        25
  6
Continuous
 62
         5
100
AcDbCircle
 10
427.0000294415
 20
517.6024806774
 30
0.0
 40
0.0625
  0
ARC
  5
108
100
AcDbEntity
  8
Z0_CUT500
370
        25
  6
Continuous
 62
         5
100
AcDbCircle
 10
425.3750294415
 20
516.4149806774
 30
0.0
 40
0.25
100
AcDbArc
 50
90.0
 51
-90.0
  0
CIRCLE
  5
109
100
AcDbEntity
  8
Z0_CUT500
370
        25
  6
Continuous
 62
         5
100
AcDbCircle
 10
424.7500019952
 20
513.2800043383
 30
0.0
 40
0.1225
  0
CIRCLE
  5
10A
100
AcDbEntity
  8
Z0_CUT500
370
        25
  6
Continuous
 62
         5
100
AcDbCircle
 10
424.7500019952
 20
514.2800043383
 30
0.0
 40
0.1225
  0
CIRCLE
  5
10B
100
AcDbEntity
  8
Z0_CUT500
370
        25
  6
Continuous
 62
         5
100
AcDbCircle
 10
408.9375019952
 20
514.2800043383
 30
0.0
 40
0.1225
  0
CIRCLE
  5
10C
100
AcDbEntity
  8
Z0_CUT500
370
        25
  6
Continuous
 62
         5
100
AcDbCircle
 10
408.9375019952
 20
513.2800043383
 30
0.0
 40
0.1225
  0
LINE
  5
10D
100
AcDbEntity
  8
Z0_CUT500
370
        25
  6
Continuous
 62
         5
100
AcDbLine
 10
407.0000294415
 20
558.5000043383
 30
0.0
 11
407.0000843342
 21
516.1024806774
 31
0.0
  0
LINE
  5
10E
100
AcDbEntity
  8
Z0_CUT500
370
        25
  6
Continuous
 62
         5
100
AcDbLine
 10
427.2499182788
 20
558.5000043383
 30
0.0
 11
427.2500294415
 21
516.6649806774
 31
0.0
  0
LINE
  5
10F
100
AcDbEntity
  8
Z0_CUT500
370
        25
  6
Continuous
 62
         5
100
AcDbLine
 10
407.0000294415
 20
558.5000043383
 30
0.0
 11
427.2499182788
 21
558.5000043383
 31
0.0
  0
LINE
  5
110
100
AcDbEntity
  8
Z0_CUT500
370
        25
  6
Continuous
 62
         5
100
AcDbLine
 10
408.5000843342
 20
512.5000043383
 30
0.0
 11
411.8583772464
 21
512.5000043383
 31
0.0
  0
CIRCLE
  5
111
100
AcDbEntity
  8
Z0_CUT500
370
        25
  6
Continuous
 62
         5
100
AcDbCircle
 10
409.1250019952
 20
515.6550043383
 30
0.0
 40
0.1225
  0
ARC
  5
112
100
AcDbEntity
  8
Z0_CUT500
370
        25
  6
Continuous
 62
         5
100
AcDbCircle
 10
408.2500843342
 20
515.8524806774
 30
0.0
 40
0.25
100
AcDbArc
 50
0.0
 51
90.0
  0
LINE
  5
113
100
AcDbEntity
  8
Z0_CUT500
370
        25
  6
Continuous
 62
         5
100
AcDbLine
 10
408.5000843342
 20
512.5000043383
 30
0.0
 11
408.5000843342
 21
515.8524806774
 31
0.0
  0
CIRCLE
  5
114
100
AcDbEntity
  8
Z0_CUT500
370
        25
  6
Continuous
 62
         5
100
AcDbCircle
 10
407.2500843342
 20
517.6024806774
 30
0.0
 40
0.0625
  0
LINE
  5
115
100
AcDbEntity
  8
Z0_CUT500
370
        25
  6
Continuous
 62
         5
100
AcDbLine
 10
408.2500843342
 20
516.1024806774
 30
0.0
 11
407.0000843342
 21
516.1024806774
 31
0.0
  0
CIRCLE
  5
116
100
AcDbEntity
  8
Z0_CUT500
370
        25
  6
Continuous
 62
         5
100
AcDbCircle
 10
408.9495259254
 20
526.3047700672
 30
0.0
 40
0.1225
  0
CIRCLE
  5
117
100
AcDbEntity
  8
Z0_CUT500
370
        25
  6
Continuous
 62
         5
100
AcDbCircle
 10
407.2500294415
 20
527.5000043383
 30
0.0
 40
0.0625
  0
CIRCLE
  5
118
100
AcDbEntity
  8
Z0_CUT500
370
        25
  6
Continuous
 62
         5
100
AcDbCircle
 10
407.2500294415
 20
521.5000043383
 30
0.0
 40
0.0625
  0
CIRCLE
  5
119
100
AcDbEntity
  8
Z0_CUT500
370
        25
  6
Continuous
 62
         5
100
AcDbCircle
 10
411.4310860581
 20
523.2541802114
 30
0.0
 40
0.234375
  0
CIRCLE
  5
11A
100
AcDbEntity
  8
Z0_CUT500
370
        25
  6
Continuous
 62
         5
100
AcDbCircle
 10
410.7676644201
 20
525.1707316103
 30
0.0
 40
0.234375
  0
CIRCLE
  5
11B
100
AcDbEntity
  8
Z0_CUT500
370
        25
  6
Continuous
 62
         5
100
AcDbCircle
 10
410.1185735671
 20
521.5780524409
 30
0.0
 40
0.234375
  0
CIRCLE
  5
11C
100
AcDbEntity
  8
Z0_CUT500
370
        25
  6
Continuous
 62
         5
100
AcDbCircle
 10
411.458069783
 20
520.6624891512
 30
0.0
 40
0.234375
  0
CIRCLE
  5
11D
100
AcDbEntity
  8
Z0_CUT250
370
        25
  6
Continuous
 62
         3
100
AcDbCircle
 10
408.1245256059
 20
527.5254581309
 30
0.0
 40
0.5015
  0
CIRCLE
  5
11E
100
AcDbEntity
  8
Z0_CUT250
370
        25
  6
Continuous
 62
         3
100
AcDbCircle
 10
409.7779560774
 20
527.5245398998
 30
0.0
 40
0.5015
  0
CIRCLE
  5
11F
100
AcDbEntity
  8
Z0_CUT500
370
        25
  6
Continuous
 62
         5
100
AcDbCircle
 10
409.7779560774
 20
527.5245398998
 30
0.0
 40
0.4375
  0
CIRCLE
  5
120
100
AcDbEntity
  8
Z0_CUT500
370
        25
  6
Continuous
 62
         5
100
AcDbCircle
 10
408.1245256059
 20
527.5254581309
 30
0.0
 40
0.4375
  0
LINE
  5
121
102
{ACAD_REACTORS
330
125
102
}
100
AcDbEntity
  8
Z0_CUT500
370
        25
  6
Continuous
 62
         5
100
AcDbLine
 10
408.2145256059
 20
525.6908739719
 30
0.0
 11
408.2145256059
 21
523.9908739719
 31
0.0
  0
LINE
  5
122
102
{ACAD_REACTORS
330
125
102
}
100
AcDbEntity
  8
Z0_CUT500
370
        25
  6
Continuous
 62
         5
100
AcDbLine
 10
408.0345256059
 20
525.6908739719
 30
0.0
 11
408.0345256059
 21
523.9908739719
 31
0.0
  0
ARC
  5
123
102
{ACAD_REACTORS
330
125
102
}
100
AcDbEntity
  8
Z0_CUT500
370
        25
  6
Continuous
 62
         5
100
AcDbCircle
 10
408.1245256059
 20
523.9908739719
 30
0.0
 40
0.09
100
AcDbArc
 50
180.0
 51
0.0
  0
ARC
  5
124
102
{ACAD_REACTORS
330
125
102
}
100
AcDbEntity
  8
Z0_CUT500
370
        25
  6
Continuous
 62
         5
100
AcDbCircle
 10
408.1245256059
 20
525.6908739719
 30
0.0
 40
0.09
100
AcDbArc
 50
0.0
 51
180.0
  0
ENDSEC
  0
SECTION
  2
OBJECTS
  0
DICTIONARY
  5
19
100
AcDbDictionary
280
         0
281
         1
  3
ACAD_GROUP
350
1A
  3
ACAD_MLINESTYLE
350
1B
  3
ACAD_LAYOUT
350
1E
  3
ACAD_PLOTSETTINGS
350
22
  3
ACAD_PLOTSTYLENAME
350
1F
  3
ACAD_WIPEOUT_VARS
350
23
  0
DICTIONARY
  5
1A
102
{ACAD_REACTORS
330
19
102
}
100
AcDbDictionary
280
         0
281
         1
  3
VELLUMGRP1
350
4F
  3
VELLUMGRP2
350
54
  3
VELLUMGRP3
350
6C
  3
VELLUMGRP4
350
73
  3
VELLUMGRP5
350
C9
  3
VELLUMGRP6
350
CE
  3
VELLUMGRP7
350
E8
  3
VELLUMGRP8
350
103
  3
VELLUMGRP9
350
125
  0
DICTIONARY
  5
1B
102
{ACAD_REACTORS
330
19
102
}
100
AcDbDictionary
280
         0
281
         1
  3
Standard
350
1C
  0
MLINESTYLE
  5
1C
102
{ACAD_REACTORS
330
1B
102
}
100
AcDbMlineStyle
  2
Standard
 70
         0
  3

 62
         0
 51
90.0
 52
90.0
 71
         2
 49
0.5
 62
       256
  6
BYLAYER
 49
-0.5
 62
       256
  6
BYLAYER
  0
ACDBDICTIONARYWDFLT
  5
1F
102
{ACAD_REACTORS
330
19
102
}
100
AcDbDictionary
281
         1
  3
Normal
350
1D
100
AcDbDictionaryWithDefault
340
1D
  0
ACDBPLACEHOLDER
  5
1D
102
{ACAD_REACTORS
330
1F
102
}
  0
LAYOUT
  5
20
102
{ACAD_REACTORS
330
1E
102
}
100
AcDbPlotSettings
  1

  2

  4

  6

 40
0.0
 41
0.0
 42
0.0
 43
0.0
 44
0.0
 45
0.0
 46
0.0
 47
0.0
 48
0.0
 49
0.0
140
0.0
141
0.0
142
1.0
143
1.0
 70
      1024
 72
         0
 73
         0
 74
         0
  7

 75
         0
147
1.0
148
0.0
149
0.0
100
AcDbLayout
  1
Model
 70
         0
 71
         0
 10
0.0
 20
0.0
 11
0.0
 21
0.0
 12
0.0
 22
0.0
 32
0.0
 14
0.0
 24
0.0
 34
0.0
 15
0.0
 25
0.0
 35
0.0
146
0.0
 13
0.0
 23
0.0
 33
0.0
 16
0.0
 26
0.0
 36
0.0
 17
0.0
 27
0.0
 37
0.0
 76
         0
330
A
331
0
345
0
346
0
  0
LAYOUT
  5
21
102
{ACAD_REACTORS
330
1E
102
}
100
AcDbPlotSettings
  1

  2

  4

  6

 40
0.0
 41
0.0
 42
0.0
 43
0.0
 44
0.0
 45
0.0
 46
0.0
 47
0.0
 48
0.0
 49
0.0
140
0.0
141
0.0
142
1.0
143
1.0
 70
         0
 72
         0
 73
         0
 74
         0
  7

 75
         0
147
1.0
148
0.0
149
0.0
100
AcDbLayout
  1
Layout1
 70
         0
 71
         0
 10
0.0
 20
0.0
 11
0.0
 21
0.0
 12
0.0
 22
0.0
 32
0.0
 14
0.0
 24
0.0
 34
0.0
 15
0.0
 25
0.0
 35
0.0
146
0.0
 13
0.0
 23
0.0
 33
0.0
 16
0.0
 26
0.0
 36
0.0
 17
0.0
 27
0.0
 37
0.0
 76
         0
330
B
331
0
345
0
346
0
  0
DICTIONARY
  5
1E
102
{ACAD_REACTORS
330
19
102
}
100
AcDbDictionary
280
         0
281
         1
  3
Layout1
350
21
  3
Model
350
20
  0
DICTIONARY
  5
22
102
{ACAD_REACTORS
330
19
102
}
100
AcDbDictionary
280
         0
281
         1
  0
WIPEOUTVARIABLES
  5
23
100
AcDbWipeoutVariables
 70
         1
  0
GROUP
  5
4F
102
{ACAD_XDICTIONARY
360
3207917C60EB2100
102
}
102
{ACAD_REACTORS
330
1A
102
}
100
AcDbGroup
300
This is Vellum Group Number 1
 70
         0
 71
         1
340
4B
340
4C
340
4D
340
4E
  0
GROUP
  5
54
102
{ACAD_XDICTIONARY
360
3207917C60EB2100
102
}
102
{ACAD_REACTORS
330
1A
102
}
100
AcDbGroup
300
This is Vellum Group Number 2
 70
         0
 71
         1
340
50
340
51
340
52
340
53
  0
GROUP
  5
6C
102
{ACAD_XDICTIONARY
360
3207917C60EB2100
102
}
102
{ACAD_REACTORS
330
1A
102
}
100
AcDbGroup
300
This is Vellum Group Number 3
 70
         0
 71
         1
340
66
340
67
340
68
340
69
340
6A
340
6B
  0
GROUP
  5
73
102
{ACAD_XDICTIONARY
360
3207917C60EB2100
102
}
102
{ACAD_REACTORS
330
1A
102
}
100
AcDbGroup
300
This is Vellum Group Number 4
 70
         0
 71
         1
340
6D
340
6E
340
6F
340
70
340
71
340
72
  0
GROUP
  5
C9
102
{ACAD_XDICTIONARY
360
3207917C60EB2100
102
}
102
{ACAD_REACTORS
330
1A
102
}
100
AcDbGroup
300
This is Vellum Group Number 5
 70
         0
 71
         1
340
C3
340
C4
340
C5
340
C6
340
C7
340
C8
  0
GROUP
  5
CE
102
{ACAD_XDICTIONARY
360
3207917C60EB2100
102
}
102
{ACAD_REACTORS
330
1A
102
}
100
AcDbGroup
300
This is Vellum Group Number 6
 70
         0
 71
         1
340
CA
340
CB
340
CC
340
CD
  0
GROUP
  5
E8
102
{ACAD_XDICTIONARY
360
3207917C60EB2100
102
}
102
{ACAD_REACTORS
330
1A
102
}
100
AcDbGroup
300
This is Vellum Group Number 7
 70
         0
 71
         1
340
E4
340
E5
340
E6
340
E7
  0
GROUP
  5
103
102
{ACAD_XDICTIONARY
360
3207917C60EB2100
102
}
102
{ACAD_REACTORS
330
1A
102
}
100
AcDbGroup
300
This is Vellum Group Number 8
 70
         0
 71
         1
340
FB
340
FC
340
FD
340
FE
340
FF
340
100
340
101
340
102
  0
GROUP
  5
125
102
{ACAD_XDICTIONARY
360
3207917C60EB2100
102
}
102
{ACAD_REACTORS
330
1A
102
}
100
AcDbGroup
300
This is Vellum Group Number 9
 70
         0
 71
         1
340
121
340
122
340
123
340
124
  0
ENDSEC
  0
EOF
